Simulation
nRows=20
nColumns=15
endheader
time  TH_x TH_y TH_z SC_y  SC_z  SC_x  AC_y  AC_z  AC_x  GH_y  GH_z  GH_yy  EL_x  PS_y
1.55  0.000000  0.000000  0.000000  -32.59401882623329  7.131537019401109  29.47188288808239  53.26683239545224  4.870385478226788  -10.280042554655495  22.86073271210089  54.81948391034572  -20.941820055475034  17.93404225771553  0.000000
1.581  0.000000  0.000000  0.000000  -33.02411281099793  7.4448817987667635  30.236752725183024  53.33804487663363  4.8637853662735235  -10.014091008825645  22.643773335445154  55.28364613780701  -20.92847935672185  17.901518264847734  0.000000
1.612  0.000000  0.000000  0.000000  -33.41025419335286  7.716887470819734  30.825694218333915  53.42693478673491  4.86997579567514  -9.711654891125631  22.399838193178415  55.72284029562717  -20.862409893849364  17.87679149072247  0.000000
1.643  0.000000  0.000000  0.000000  -33.74759566412924  7.926057229746813  31.25652856414139  53.52764187419759  4.906955901492132  -9.41096168285097  22.15000899343372  56.11573840684509  -20.78250361799138  17.873899592967174  0.000000
1.674  0.000000  0.000000  0.000000  -34.0506938107849  8.073349962060403  31.56483636206986  53.633405105382934  4.977640839211018  -9.133717444386301  21.930540014749905  56.426620590173414  -20.71826142316674  17.894663145542033  0.000000
1.705  0.000000  0.000000  0.000000  -34.338465029678765  8.173449014464312  31.785449405557564  53.73692933718374  5.071865571753817  -8.885737101219137  21.779492306329896  56.62115082866182  -20.676821215245845  17.92952386410453  0.000000
1.736  0.000000  0.000000  0.000000  -34.61383477827265  8.239118583522455  31.94006950932951  53.83017437603099  5.174601610932076  -8.67582136538312  21.723769440044236  56.679522593968244  -20.655677370464126  17.967784512914175  0.000000
1.767  0.000000  0.000000  0.000000  -34.85553554260998  8.274430941847395  32.0317699659468  53.90204211240179  5.266481542602184  -8.522222094951385  21.770383023127113  56.60554346841532  -20.649924396436848  18.002238074041202  0.000000
1.798  0.000000  0.000000  0.000000  -35.025234883316806  8.279171560574007  32.04938254378798  53.93893984969372  5.324645342456994  -8.451878488054406  21.909486112944055  56.42189875275925  -20.65932810851851  18.029092318960465  0.000000
1.829  0.000000  0.000000  0.000000  -35.08672872056599  8.249906716156424  31.98066293418366  53.92751614904107  5.331560307901156  -8.489452652850355  22.127639026048328  56.151604906826215  -20.69017837814543  18.04673630226426  0.000000
1.8599999999999999  0.000000  0.000000  0.000000  -35.02327507318402  8.180079249466866  31.824767262065077  53.86807704684579  5.280030725898751  -8.646328564894455  22.40981293222602  55.802885211292775  -20.76518666074541  18.05534825552529  0.000000
1.891  0.000000  0.000000  0.000000  -34.84263822851103  8.058857141960022  31.593972506931543  53.77843023918508  5.175825684297501  -8.913014866553565  22.73902686222026  55.36448113969224  -20.918401845936398  18.05694712631386  0.000000
1.922  0.000000  0.000000  0.000000  -34.566898428682855  7.874759123482451  31.30230594312281  53.68698524251559  5.031339096666842  -9.266776623434327  23.09693833900358  54.81931379940145  -21.18251360128322  18.054631448156087  0.000000
1.953  0.000000  0.000000  0.000000  -34.22462452028996  7.625312584669102  30.94993442745719  53.61804723143548  4.856287893616106  -9.673298053546704  23.466017361170493  54.15961323729449  -21.560492298892413  18.053410776631427  0.000000
1.984  0.000000  0.000000  0.000000  -33.849963768571385  7.323008725908503  30.51801919514286  53.58461831403642  4.6507856350176455  -10.09154205021979  23.83598310700871  53.395234730166166  -22.014906935321946  18.061134666906398  0.000000
2.015  0.000000  0.000000  0.000000  -33.47337468305503  6.989977159145412  29.97364671209813  53.58611708161305  4.411509159799542  -10.476708028661616  24.20050560686601  52.547623842266454  -22.4777796464263  18.08690927371977  0.000000
2.046  0.000000  0.000000  0.000000  -33.11085417239748  6.643170127575992  29.287537548543565  53.61198115567267  4.146188330373027  -10.795070387995775  24.55769354459949  51.63649422002636  -22.886118579807846  18.13875394201772  0.000000
2.077  0.000000  0.000000  0.000000  -32.76730474201576  6.288460831690171  28.450075052516645  53.64995844048725  3.8743633746733614  -11.02627244288009  24.905092090306514  50.671242386663536  -23.203785949869186  18.219979368571185  0.000000
2.108  0.000000  0.000000  0.000000  -32.442430001228814  5.9224967994919435  27.47422202909434  53.6936249648701  3.6171061531580055  -11.167060650183048  25.238013878618943  49.6567659907947  -23.429741700232398  18.325401246644034  0.000000
2.139  0.000000  0.000000  0.000000  -32.13718025281778  5.537239490620625  26.385775582742856  53.739667255519564  3.3921640092010965  -11.225273593929066  25.551109797832847  48.59754727211732  -23.578222674764042  18.446935042151804  0.000000
